<svg xmlns="http://www.w3.org/2000/svg" viewBox="0 0 93.98 36.52"><defs><style>.cls-1{fill:#0078d4;}</style></defs><g id="Layer_2" data-name="Layer 2"><g id="Layer_2-2" data-name="Layer 2"><path class="cls-1" d="M39.1,3.65V9.29a2.67,2.67,0,0,0-1.82,0V3.65Z"/><path class="cls-1" d="M39.1,14.44v13H37.28V14.44a2.52,2.52,0,0,0,1.82,0Z"/><rect class="cls-1" x="37.28" y="29.22" width="1.83" height="5.48"/><path class="cls-1" d="M7.33,15.89h.74l.51,1.92c.43-1.14,1.62-2.14,4.27-2.1V17.2C9.61,17.05,9,18.51,9,20.94V27.1H7.33Z"/><path class="cls-1" d="M12.81,21.43c0-2.89,1.13-5.67,5.58-5.67,3.92,0,5.08,2.47,5.08,5.58,0,.31,0,.52,0,.83H14.54c.11,2.21,1.11,3.77,3.83,3.77,2.34,0,3.2-1.16,3.39-2.35h1.71c-.17,1.93-1.47,3.64-5.06,3.64C13.84,27.23,12.81,24.45,12.81,21.43Zm9-.57c0-2.15-1-3.79-3.5-3.79-2.85,0-3.66,1.77-3.72,3.79Z"/><path class="cls-1" d="M24.49,27.65h1.66c0,1.7.7,2.84,3.9,2.84s3.7-1,3.7-1.84c0-2.69-9.09-1.11-9.09-4.18,0-.79.66-1.29,1.8-1.55a3.25,3.25,0,0,1-1.58-3.05c0-2.3,1-4,5.26-4H35v.83l-1.86.3a2.77,2.77,0,0,1,1.64,2.87c0,2.37-.92,4.06-5,4.06a6.79,6.79,0,0,1-2.28-.27c-1,.11-1.23.44-1.23.7,0,1.71,9.14.22,9.14,4.21,0,1.58-1.21,3.24-5.41,3.24C25.65,31.83,24.49,30.19,24.49,27.65Zm8.6-7.8c0-1.53-.52-2.63-3.26-2.63s-3.26,1-3.26,2.63.54,2.85,3.28,2.85S33.09,21.52,33.09,19.85Z"/><path class="cls-1" d="M40.89,22.92h1.6c0,1.9,1.07,3,3.68,3,2.39,0,3.22-1,3.22-1.85,0-2.86-8.26-1.11-8.26-5.12,0-1.75,1.27-3.17,4.78-3.17s4.79,1.68,4.79,4.13H49.17c-.05-1.75-.88-2.82-3.31-2.82-2.63,0-3.09,1-3.09,1.84,0,2.61,8.19,1,8.19,5.06,0,1.6-1.31,3.26-4.77,3.26C42.49,27.23,40.82,25.76,40.89,22.92Z"/><path class="cls-1" d="M52.85,23.81V17.24H51.32v-1l1.53-.37V13.08h1.6v2.81H58v1.35H54.52v6.57c0,1.38.57,2,2.71,2,.25,0,.49,0,.77,0v1.35c-.35,0-.68.05-1,.05C54.1,27.21,52.85,26.24,52.85,23.81Z"/><path class="cls-1" d="M59.49,15.89h.75l.5,1.92c.44-1.14,1.62-2.14,4.27-2.1V17.2c-3.24-.15-3.87,1.31-3.87,3.74V27.1H59.49Z"/><path class="cls-1" d="M66.05,21.93v-6h1.6v6.17c0,2.41.5,3.79,3.37,3.79s3.5-1.4,3.5-3.88V15.89h1.64V27.1h-.91l-.33-2c-.44,1.14-1.65,2.15-4.34,2.15C66.77,27.23,66.05,25.15,66.05,21.93Z"/><path class="cls-1" d="M78.34,15.89h.74l.51,1.75c.39-1,1.51-1.88,3.59-1.88,1.93,0,2.93.8,3.35,2.19.33-1.19,1.42-2.19,3.66-2.19,3.09,0,3.79,2.07,3.79,4.84v6.5H92.29V20.51c0-2-.46-3.33-2.58-3.33S87,18.43,87,20.51V27.1H85.33V20.51c0-2-.51-3.33-2.63-3.33S80,18.43,80,20.51V27.1H78.34Z"/><path class="cls-1" d="M41.68,2.5A2.49,2.49,0,0,1,39.18,5H2.5a2.5,2.5,0,0,1,0-5H39.18A2.49,2.49,0,0,1,41.68,2.5Z"/><rect class="cls-1" x="2.58" y="3.65" width="1.83" height="31.04"/><rect class="cls-1" x="2.58" y="34.7" width="36.52" height="1.83"/><circle class="cls-1" cx="38.19" cy="11.87" r="1.83"/></g></g></svg>